# xmcd CD database file
#
# Track frame offsets:
#	150
#	19210
#	38830
#	54914
#	73925
#	94531
#	114603
#	132856
#	147682
#	164444
#
# Disc length: 2481 seconds
#
# Revision: 0
# Processed by: cddbd v1.5.1PL0 Copyright (c) Steve Scherf et al.
# Submitted via: CDex 1.51
#
DISCID=8e09af0a
DTITLE=Speed/Kill/Hate - Acts Of Insanity
DYEAR=1900
DGENRE=スラッシュ/スピード メタル
TTITLE0=Walls Of Hate
TTITLE1=Setting Me Off
TTITLE2=Violence Breeds
TTITLE3=Slay The Enemy
TTITLE4=Won't See Fear
TTITLE5=Face The Pain
TTITLE6=Revelation At War(R.A.W)
TTITLE7=Not For Me
TTITLE8=Repent
TTITLE9=Beyond A Man
EXTD=
EXTT0=
EXTT1=
EXTT2=
EXTT3=
EXTT4=
EXTT5=
EXTT6=
EXTT7=
EXTT8=
EXTT9=
PLAYORDER=
